<svg width="460" height="23" viewBox="0 0 460 23" fill="none" xmlns="http://www.w3.org/2000/svg">
<g clip-path="url(#clip0_1_264)">
<path d="M14.875 4H2.125C0.956 4 0 4.957 0 6.125V18.875C0 20.045 0.956 21 2.125 21H8.574V14.904H6.537V12.249H8.574V10.919C8.574 8.868 10.087 7.262 12.02 7.262H13.897V10.26H12.218C11.779 10.26 11.649 10.512 11.649 10.861V12.249H13.897V14.904H11.649V21H14.875C16.045 21 17 20.045 17 18.875V6.125C17 4.957 16.045 4 14.875 4Z" fill="white"/>
</g>
<g clip-path="url(#clip1_1_264)">
<path d="M46 7.731C45.337 8.024 44.626 8.223 43.879 8.312C44.641 7.855 45.226 7.131 45.502 6.27C44.79 6.693 43.999 7 43.158 7.165C42.484 6.448 41.524 6 40.462 6C38.423 6 36.769 7.652 36.769 9.692C36.769 9.981 36.801 10.263 36.865 10.534C33.795 10.379 31.074 8.909 29.253 6.676C28.935 7.221 28.753 7.856 28.753 8.531C28.753 9.813 29.405 10.943 30.396 11.605C29.791 11.586 29.221 11.42 28.723 11.144C28.723 11.159 28.723 11.174 28.723 11.19C28.723 12.979 29.996 14.472 31.685 14.811C31.375 14.895 31.049 14.94 30.712 14.94C30.475 14.94 30.243 14.918 30.018 14.874C30.487 16.342 31.852 17.409 33.467 17.439C32.204 18.43 30.612 19.02 28.882 19.02C28.583 19.02 28.29 19.002 28.001 18.967C29.635 20.015 31.576 20.626 33.662 20.626C40.454 20.626 44.169 14.999 44.169 10.12C44.169 9.959 44.165 9.799 44.157 9.641C44.878 9.123 45.505 8.472 46 7.731Z" fill="white"/>
</g>
<g clip-path="url(#clip2_1_264)">
<path d="M60.85 5.817C60.85 6.821 60.109 7.634 58.889 7.634C57.741 7.635 57 6.822 57 5.817C57 4.789 57.765 4 58.937 4C60.108 4 60.826 4.789 60.85 5.817ZM57.096 20.762V9.069H60.73V20.761L57.096 20.762Z" fill="white"/>
<path d="M62.905 12.7999C62.905 11.3409 62.858 10.1219 62.81 9.06989H65.966L66.134 10.6959H66.205C66.684 9.92989 67.855 8.80689 69.814 8.80689C72.206 8.80589 74 10.4079 74 13.8519V20.7619H70.365V14.2829C70.365 12.7769 69.84 11.7489 68.523 11.7489C67.519 11.7489 66.921 12.4419 66.66 13.1119C66.562 13.3499 66.54 13.6859 66.54 14.0199V20.7619H62.905V12.7999Z" fill="white"/>
</g>
<path d="M93.052 16.454L90.352 13.933C90.139 13.734 89.794 13.734 89.581 13.933L85 18.201V18.782C85 19.324 85.475 19.765 86.055 19.765H100.82C101.4 19.765 101.875 19.324 101.875 18.782V18.201L97.294 13.931C97.08 13.734 96.734 13.734 96.523 13.931L93.823 16.452C93.61 16.652 93.265 16.652 93.052 16.454ZM98.791 12.536L101.49 15.057C101.702 15.256 101.875 15.18 101.875 14.889V9.465C101.875 9.173 101.702 9.098 101.49 9.297L98.791 11.818C98.577 12.016 98.577 12.337 98.791 12.536ZM86.055 5C85.475 5 85 5.443 85 5.984V6.161L93.011 13.665C93.223 13.864 93.567 13.864 93.779 13.665L101.875 6.072V5.984C101.875 5.443 101.4 5 100.82 5H86.055ZM85 9.465V14.889C85 15.18 85.173 15.256 85.385 15.057L88.084 12.536C88.298 12.337 88.298 12.016 88.084 11.817L85.385 9.297C85.173 9.098 85 9.173 85 9.465Z" fill="white"/>
<defs>
<clipPath id="clip0_1_264">
<rect width="17" height="17" fill="white" transform="translate(0 4)"/>
</clipPath>
<clipPath id="clip1_1_264">
<rect width="18" height="18" fill="white" transform="translate(28 4)"/>
</clipPath>
<clipPath id="clip2_1_264">
<rect width="17" height="17" fill="white" transform="translate(57 4)"/>
</clipPath>
</defs>
</svg>
